<mxfile host="app.diagrams.net" modified="2024-04-09T12:41:27.378Z" agent="Mozilla/5.0 (X11; Ubuntu; Linux x86_64; rv:124.0) Gecko/20100101 Firefox/124.0" etag="B56nUtM2_uNH7ZW14Q5g" version="24.2.3" type="github">
  <diagram name="Page-1" id="2mTC49kOEXJH68bKo61o">
    <mxGraphModel dx="819" dy="453" grid="1" gridSize="10" guides="1" tooltips="1" connect="1" arrows="1" fold="1" page="1" pageScale="1" pageWidth="850" pageHeight="1100" math="0" shadow="0">
      <root>
        <mxCell id="0" />
        <mxCell id="1" parent="0" />
        <mxCell id="WaGxCIXkYhKJaG9P3NUQ-42" value="" style="rounded=0;whiteSpace=wrap;html=1;" vertex="1" parent="1">
          <mxGeometry x="390" y="80" width="90" height="170" as="geometry" />
        </mxCell>
        <mxCell id="WaGxCIXkYhKJaG9P3NUQ-1" style="edgeStyle=orthogonalEdgeStyle;rounded=0;orthogonalLoop=1;jettySize=auto;html=1;exitX=0.5;exitY=1;exitDx=0;exitDy=0;entryX=0.5;entryY=0;entryDx=0;entryDy=0;" edge="1" parent="1" source="WaGxCIXkYhKJaG9P3NUQ-3" target="WaGxCIXkYhKJaG9P3NUQ-12">
          <mxGeometry relative="1" as="geometry" />
        </mxCell>
        <mxCell id="WaGxCIXkYhKJaG9P3NUQ-2" value="memory_en" style="edgeLabel;html=1;align=center;verticalAlign=middle;resizable=0;points=[];" vertex="1" connectable="0" parent="WaGxCIXkYhKJaG9P3NUQ-1">
          <mxGeometry x="-0.3333" y="-2" relative="1" as="geometry">
            <mxPoint x="32" as="offset" />
          </mxGeometry>
        </mxCell>
        <mxCell id="WaGxCIXkYhKJaG9P3NUQ-3" value="reception process" style="rounded=0;whiteSpace=wrap;html=1;" vertex="1" parent="1">
          <mxGeometry x="120" y="80" width="120" height="80" as="geometry" />
        </mxCell>
        <mxCell id="WaGxCIXkYhKJaG9P3NUQ-4" value="" style="endArrow=classic;html=1;rounded=0;" edge="1" parent="1">
          <mxGeometry width="50" height="50" relative="1" as="geometry">
            <mxPoint x="80" y="100" as="sourcePoint" />
            <mxPoint x="120" y="100" as="targetPoint" />
          </mxGeometry>
        </mxCell>
        <mxCell id="WaGxCIXkYhKJaG9P3NUQ-5" value="i_emu_busy" style="edgeLabel;html=1;align=center;verticalAlign=middle;resizable=0;points=[];" vertex="1" connectable="0" parent="WaGxCIXkYhKJaG9P3NUQ-4">
          <mxGeometry x="-0.3182" y="1" relative="1" as="geometry">
            <mxPoint x="-48" y="-8" as="offset" />
          </mxGeometry>
        </mxCell>
        <mxCell id="WaGxCIXkYhKJaG9P3NUQ-6" value="" style="endArrow=classic;html=1;rounded=0;entryX=-0.007;entryY=0.113;entryDx=0;entryDy=0;entryPerimeter=0;" edge="1" parent="1">
          <mxGeometry width="50" height="50" relative="1" as="geometry">
            <mxPoint x="80" y="110" as="sourcePoint" />
            <mxPoint x="120.00000000000009" y="110.04000000000002" as="targetPoint" />
          </mxGeometry>
        </mxCell>
        <mxCell id="WaGxCIXkYhKJaG9P3NUQ-7" value="i_req" style="edgeLabel;html=1;align=center;verticalAlign=middle;resizable=0;points=[];" vertex="1" connectable="0" parent="WaGxCIXkYhKJaG9P3NUQ-6">
          <mxGeometry x="-0.3182" y="1" relative="1" as="geometry">
            <mxPoint x="-48" y="-8" as="offset" />
          </mxGeometry>
        </mxCell>
        <mxCell id="WaGxCIXkYhKJaG9P3NUQ-8" value="" style="endArrow=classic;html=1;rounded=0;" edge="1" parent="1">
          <mxGeometry width="50" height="50" relative="1" as="geometry">
            <mxPoint x="120" y="119.8" as="sourcePoint" />
            <mxPoint x="80" y="119.8" as="targetPoint" />
          </mxGeometry>
        </mxCell>
        <mxCell id="WaGxCIXkYhKJaG9P3NUQ-9" value="o_ack" style="edgeLabel;html=1;align=center;verticalAlign=middle;resizable=0;points=[];" vertex="1" connectable="0" parent="WaGxCIXkYhKJaG9P3NUQ-8">
          <mxGeometry x="-0.3182" y="1" relative="1" as="geometry">
            <mxPoint x="-48" y="-8" as="offset" />
          </mxGeometry>
        </mxCell>
        <mxCell id="WaGxCIXkYhKJaG9P3NUQ-10" value="" style="endArrow=classic;html=1;rounded=0;entryX=-0.007;entryY=0.113;entryDx=0;entryDy=0;entryPerimeter=0;" edge="1" parent="1">
          <mxGeometry width="50" height="50" relative="1" as="geometry">
            <mxPoint x="80" y="130" as="sourcePoint" />
            <mxPoint x="120.00000000000009" y="130.04000000000002" as="targetPoint" />
          </mxGeometry>
        </mxCell>
        <mxCell id="WaGxCIXkYhKJaG9P3NUQ-11" value="i_spike_flag" style="edgeLabel;html=1;align=center;verticalAlign=middle;resizable=0;points=[];" vertex="1" connectable="0" parent="WaGxCIXkYhKJaG9P3NUQ-10">
          <mxGeometry x="-0.3182" y="1" relative="1" as="geometry">
            <mxPoint x="-48" y="1" as="offset" />
          </mxGeometry>
        </mxCell>
        <mxCell id="WaGxCIXkYhKJaG9P3NUQ-12" value="synaptic memory" style="rounded=0;whiteSpace=wrap;html=1;" vertex="1" parent="1">
          <mxGeometry x="120" y="190" width="120" height="60" as="geometry" />
        </mxCell>
        <mxCell id="WaGxCIXkYhKJaG9P3NUQ-13" value="" style="endArrow=classic;html=1;rounded=0;entryX=0;entryY=0.5;entryDx=0;entryDy=0;" edge="1" parent="1" target="WaGxCIXkYhKJaG9P3NUQ-12">
          <mxGeometry width="50" height="50" relative="1" as="geometry">
            <mxPoint x="80" y="220" as="sourcePoint" />
            <mxPoint x="80" y="190" as="targetPoint" />
          </mxGeometry>
        </mxCell>
        <mxCell id="WaGxCIXkYhKJaG9P3NUQ-14" value="i_aer" style="edgeLabel;html=1;align=center;verticalAlign=middle;resizable=0;points=[];" vertex="1" connectable="0" parent="WaGxCIXkYhKJaG9P3NUQ-13">
          <mxGeometry x="-0.75" y="2" relative="1" as="geometry">
            <mxPoint x="-5" y="-8" as="offset" />
          </mxGeometry>
        </mxCell>
        <mxCell id="WaGxCIXkYhKJaG9P3NUQ-19" value="" style="endArrow=classic;html=1;rounded=0;" edge="1" parent="1">
          <mxGeometry width="50" height="50" relative="1" as="geometry">
            <mxPoint x="350" y="90" as="sourcePoint" />
            <mxPoint x="390" y="90" as="targetPoint" />
          </mxGeometry>
        </mxCell>
        <mxCell id="WaGxCIXkYhKJaG9P3NUQ-20" value="i_start_emu" style="edgeLabel;html=1;align=center;verticalAlign=middle;resizable=0;points=[];" vertex="1" connectable="0" parent="WaGxCIXkYhKJaG9P3NUQ-19">
          <mxGeometry x="-0.672" y="2" relative="1" as="geometry">
            <mxPoint x="-6" y="-8" as="offset" />
          </mxGeometry>
        </mxCell>
        <mxCell id="WaGxCIXkYhKJaG9P3NUQ-25" value="" style="endArrow=classic;html=1;rounded=0;" edge="1" parent="1">
          <mxGeometry width="50" height="50" relative="1" as="geometry">
            <mxPoint x="280" y="200" as="sourcePoint" />
            <mxPoint x="300" y="200" as="targetPoint" />
          </mxGeometry>
        </mxCell>
        <mxCell id="WaGxCIXkYhKJaG9P3NUQ-28" value="" style="endArrow=none;html=1;rounded=0;" edge="1" parent="1">
          <mxGeometry width="50" height="50" relative="1" as="geometry">
            <mxPoint x="280" y="110" as="sourcePoint" />
            <mxPoint x="280" y="200" as="targetPoint" />
          </mxGeometry>
        </mxCell>
        <mxCell id="WaGxCIXkYhKJaG9P3NUQ-29" value="" style="endArrow=none;html=1;rounded=0;" edge="1" parent="1">
          <mxGeometry width="50" height="50" relative="1" as="geometry">
            <mxPoint x="280" y="110" as="sourcePoint" />
            <mxPoint x="240" y="110" as="targetPoint" />
          </mxGeometry>
        </mxCell>
        <mxCell id="WaGxCIXkYhKJaG9P3NUQ-30" value="spike_flag" style="edgeLabel;html=1;align=center;verticalAlign=middle;resizable=0;points=[];" vertex="1" connectable="0" parent="WaGxCIXkYhKJaG9P3NUQ-29">
          <mxGeometry x="0.18" relative="1" as="geometry">
            <mxPoint x="14" y="-10" as="offset" />
          </mxGeometry>
        </mxCell>
        <mxCell id="WaGxCIXkYhKJaG9P3NUQ-32" value="" style="endArrow=classic;html=1;rounded=0;" edge="1" parent="1">
          <mxGeometry width="50" height="50" relative="1" as="geometry">
            <mxPoint x="270" y="219.76" as="sourcePoint" />
            <mxPoint x="300" y="219.76" as="targetPoint" />
          </mxGeometry>
        </mxCell>
        <mxCell id="WaGxCIXkYhKJaG9P3NUQ-34" value="" style="endArrow=none;html=1;rounded=0;" edge="1" parent="1">
          <mxGeometry width="50" height="50" relative="1" as="geometry">
            <mxPoint x="270" y="220" as="sourcePoint" />
            <mxPoint x="240" y="219.8" as="targetPoint" />
          </mxGeometry>
        </mxCell>
        <mxCell id="WaGxCIXkYhKJaG9P3NUQ-35" value="weight" style="edgeLabel;html=1;align=center;verticalAlign=middle;resizable=0;points=[];" vertex="1" connectable="0" parent="WaGxCIXkYhKJaG9P3NUQ-34">
          <mxGeometry x="0.18" relative="1" as="geometry">
            <mxPoint x="-2" y="-10" as="offset" />
          </mxGeometry>
        </mxCell>
        <mxCell id="WaGxCIXkYhKJaG9P3NUQ-38" value="" style="endArrow=classic;html=1;rounded=0;" edge="1" parent="1">
          <mxGeometry width="50" height="50" relative="1" as="geometry">
            <mxPoint x="463.75" y="170" as="sourcePoint" />
            <mxPoint x="520" y="170" as="targetPoint" />
          </mxGeometry>
        </mxCell>
        <mxCell id="WaGxCIXkYhKJaG9P3NUQ-39" value="o_aer" style="edgeLabel;html=1;align=center;verticalAlign=middle;resizable=0;points=[];" vertex="1" connectable="0" parent="WaGxCIXkYhKJaG9P3NUQ-38">
          <mxGeometry x="0.5733" relative="1" as="geometry">
            <mxPoint x="-4" y="-10" as="offset" />
          </mxGeometry>
        </mxCell>
        <mxCell id="WaGxCIXkYhKJaG9P3NUQ-40" value="" style="endArrow=classic;html=1;rounded=0;" edge="1" parent="1">
          <mxGeometry width="50" height="50" relative="1" as="geometry">
            <mxPoint x="467.5" y="189.43" as="sourcePoint" />
            <mxPoint x="520" y="190" as="targetPoint" />
          </mxGeometry>
        </mxCell>
        <mxCell id="WaGxCIXkYhKJaG9P3NUQ-41" value="o_spike_flag" style="edgeLabel;html=1;align=center;verticalAlign=middle;resizable=0;points=[];" vertex="1" connectable="0" parent="WaGxCIXkYhKJaG9P3NUQ-40">
          <mxGeometry x="0.5733" relative="1" as="geometry">
            <mxPoint x="16" y="-10" as="offset" />
          </mxGeometry>
        </mxCell>
        <mxCell id="WaGxCIXkYhKJaG9P3NUQ-45" value="" style="endArrow=classic;html=1;rounded=0;" edge="1" parent="1">
          <mxGeometry width="50" height="50" relative="1" as="geometry">
            <mxPoint x="480" y="90" as="sourcePoint" />
            <mxPoint x="520" y="90" as="targetPoint" />
          </mxGeometry>
        </mxCell>
        <mxCell id="WaGxCIXkYhKJaG9P3NUQ-46" value="o_emu_busy" style="edgeLabel;html=1;align=center;verticalAlign=middle;resizable=0;points=[];" vertex="1" connectable="0" parent="WaGxCIXkYhKJaG9P3NUQ-45">
          <mxGeometry x="0.38" y="-1" relative="1" as="geometry">
            <mxPoint x="42" y="-11" as="offset" />
          </mxGeometry>
        </mxCell>
        <mxCell id="WaGxCIXkYhKJaG9P3NUQ-47" value="" style="endArrow=classic;html=1;rounded=0;" edge="1" parent="1">
          <mxGeometry width="50" height="50" relative="1" as="geometry">
            <mxPoint x="480" y="99.8" as="sourcePoint" />
            <mxPoint x="520" y="99.8" as="targetPoint" />
          </mxGeometry>
        </mxCell>
        <mxCell id="WaGxCIXkYhKJaG9P3NUQ-48" value="o_req" style="edgeLabel;html=1;align=center;verticalAlign=middle;resizable=0;points=[];" vertex="1" connectable="0" parent="WaGxCIXkYhKJaG9P3NUQ-47">
          <mxGeometry x="0.38" y="-1" relative="1" as="geometry">
            <mxPoint x="32" y="-1" as="offset" />
          </mxGeometry>
        </mxCell>
        <mxCell id="WaGxCIXkYhKJaG9P3NUQ-49" value="" style="endArrow=classic;html=1;rounded=0;" edge="1" parent="1">
          <mxGeometry width="50" height="50" relative="1" as="geometry">
            <mxPoint x="520" y="110" as="sourcePoint" />
            <mxPoint x="480" y="110.4" as="targetPoint" />
          </mxGeometry>
        </mxCell>
        <mxCell id="WaGxCIXkYhKJaG9P3NUQ-50" value="o_req" style="edgeLabel;html=1;align=center;verticalAlign=middle;resizable=0;points=[];" vertex="1" connectable="0" parent="WaGxCIXkYhKJaG9P3NUQ-49">
          <mxGeometry x="0.38" y="-1" relative="1" as="geometry">
            <mxPoint x="41" y="11" as="offset" />
          </mxGeometry>
        </mxCell>
        <mxCell id="WaGxCIXkYhKJaG9P3NUQ-51" value="&lt;div&gt;current &lt;br&gt;&lt;/div&gt;&lt;div&gt;memory&lt;br&gt;&lt;/div&gt;" style="rounded=0;whiteSpace=wrap;html=1;" vertex="1" parent="1">
          <mxGeometry x="300" y="190" width="60" height="60" as="geometry" />
        </mxCell>
        <mxCell id="WaGxCIXkYhKJaG9P3NUQ-53" value="&lt;div&gt;voltage&lt;br&gt;&lt;/div&gt;&lt;div&gt;memory&lt;br&gt;&lt;/div&gt;" style="rounded=0;whiteSpace=wrap;html=1;" vertex="1" parent="1">
          <mxGeometry x="300" y="120" width="60" height="60" as="geometry" />
        </mxCell>
        <mxCell id="WaGxCIXkYhKJaG9P3NUQ-54" value="hardware neuron" style="rounded=0;whiteSpace=wrap;html=1;" vertex="1" parent="1">
          <mxGeometry x="400" y="160" width="67.5" height="50" as="geometry" />
        </mxCell>
        <mxCell id="WaGxCIXkYhKJaG9P3NUQ-55" value="" style="endArrow=classic;html=1;rounded=0;" edge="1" parent="1">
          <mxGeometry width="50" height="50" relative="1" as="geometry">
            <mxPoint x="360" y="170" as="sourcePoint" />
            <mxPoint x="400" y="170" as="targetPoint" />
          </mxGeometry>
        </mxCell>
        <mxCell id="WaGxCIXkYhKJaG9P3NUQ-57" value="V" style="edgeLabel;html=1;align=center;verticalAlign=middle;resizable=0;points=[];" vertex="1" connectable="0" parent="WaGxCIXkYhKJaG9P3NUQ-55">
          <mxGeometry x="-0.4119" y="1" relative="1" as="geometry">
            <mxPoint y="-9" as="offset" />
          </mxGeometry>
        </mxCell>
        <mxCell id="WaGxCIXkYhKJaG9P3NUQ-56" value="" style="endArrow=classic;html=1;rounded=0;" edge="1" parent="1">
          <mxGeometry width="50" height="50" relative="1" as="geometry">
            <mxPoint x="360" y="200" as="sourcePoint" />
            <mxPoint x="400" y="200" as="targetPoint" />
          </mxGeometry>
        </mxCell>
        <mxCell id="WaGxCIXkYhKJaG9P3NUQ-58" value="I" style="edgeLabel;html=1;align=center;verticalAlign=middle;resizable=0;points=[];" vertex="1" connectable="0" parent="WaGxCIXkYhKJaG9P3NUQ-56">
          <mxGeometry x="-0.269" y="2" relative="1" as="geometry">
            <mxPoint y="12" as="offset" />
          </mxGeometry>
        </mxCell>
        <mxCell id="WaGxCIXkYhKJaG9P3NUQ-59" value="" style="endArrow=classic;html=1;rounded=0;" edge="1" parent="1">
          <mxGeometry width="50" height="50" relative="1" as="geometry">
            <mxPoint x="420" y="230" as="sourcePoint" />
            <mxPoint x="360" y="230" as="targetPoint" />
          </mxGeometry>
        </mxCell>
        <mxCell id="WaGxCIXkYhKJaG9P3NUQ-61" value="reset" style="edgeLabel;html=1;align=center;verticalAlign=middle;resizable=0;points=[];" vertex="1" connectable="0" parent="WaGxCIXkYhKJaG9P3NUQ-59">
          <mxGeometry x="-0.4538" y="1" relative="1" as="geometry">
            <mxPoint x="30" y="-1" as="offset" />
          </mxGeometry>
        </mxCell>
        <mxCell id="WaGxCIXkYhKJaG9P3NUQ-60" value="" style="endArrow=none;html=1;rounded=0;" edge="1" parent="1">
          <mxGeometry width="50" height="50" relative="1" as="geometry">
            <mxPoint x="420" y="230" as="sourcePoint" />
            <mxPoint x="420.24" y="210" as="targetPoint" />
          </mxGeometry>
        </mxCell>
        <mxCell id="WaGxCIXkYhKJaG9P3NUQ-63" value="&lt;div&gt;Transmission&lt;/div&gt;&lt;div&gt;process&lt;br&gt;&lt;/div&gt;" style="text;html=1;align=center;verticalAlign=middle;whiteSpace=wrap;rounded=0;" vertex="1" parent="1">
          <mxGeometry x="403.75" y="100" width="60" height="30" as="geometry" />
        </mxCell>
      </root>
    </mxGraphModel>
  </diagram>
</mxfile>
